# xmcd
#
# Track frame offsets:
#	150
#	11387
#	33387
#	53824
#	71054
#	85782
#	104352
#	118794
#	133708
#	152425
#	168283
#	190191
#	204037
#	217696
#	231466
#
# Disc length: 3312 seconds
# Revision: 0
# Processed by: cddbd v1.5.2PL0 Copyright (c) Steve Scherf et al.
# Submitted via: dBpowerAMP V12.0
#
DISCID=bd0cee0f
DTITLE=Various Artist - Country Party Starter
DYEAR=2011
DGENRE=Country
TTITLE0=Alan Jackson - Chattahoochee
TTITLE1=Brad Paisley - Alcohol
TTITLE2=Kenny Chesney - Beer in Mexico
TTITLE3=Sara Evans - Suds in the Bucket
TTITLE4=Brooks and Dunn - Play Something Country
TTITLE5=Miranda Lambert - Famous in a Small Town
TTITLE6=The Lost Trailers - Holler Back
TTITLE7=Gretchen Wilson - Here for the Party
TTITLE8=Martina McBride - When God-Fearin' Women Get the Blues
TTITLE9=Josh Turner - Firecracker
TTITLE10=Montgomery Gentry - Hell Yeah
TTITLE11=Chris Cagle - Play It Loud
TTITLE12=Craig Morgan - Bonfire
TTITLE13=Tracy Bird - Ten Rounds with Jose Cuervo
TTITLE14=Joe Diffie - Prop Me Up Beside the Jukebox (If I Die)
EXTD=
EXTT0=
EXTT1=
EXTT2=
EXTT3=
EXTT4=
EXTT5=
EXTT6=
EXTT7=
EXTT8=
EXTT9=
EXTT10=
EXTT11=
EXTT12=
EXTT13=
EXTT14=
PLAYORDER=
